# xmcd
#
# Track frame offsets:
#	150
#	19634
#	30209
#	43653
#	54313
#	73716
#	82304
#	91070
#	102618
#	124909
#	138031
#	157330
#	168881
#	181287
#	197754
#	208768
#	222717
#	234975
#	249286
#	261212
#	275025
#	287325
#	299657
#	309181
#	325263
#	345162
#
# Disc length: 4743 seconds
#
# Revision: 0
# Processed by: cddbd v1.5.2PL0 Copyright (c) Steve Scherf et al.
# Submitted via: EZCDAudioConverter 7.0.6.1
#
DISCID=7e12851a
DTITLE=V/A - I Said, She Said, Ah Cid 3/3
DYEAR=1900
DGENRE=
TTITLE0=John Bunyan's Progressive Pilgrims - Sabre Dance
TTITLE1=Modern Sounds - My Bucket's Got A Hole In It
TTITLE2=Autumn - My Little Girl
TTITLE3=The Heads Of The Family - Troubled People
TTITLE4=Doctor Marigold's Prescription - Visions Of A Hobo
TTITLE5=The Mustang - Golden Gate Freakout
TTITLE6=Icarus - Thing's Thing
TTITLE7=Jane and Eve And The Creations - Street King
TTITLE8=John Bunyan's Progressive Pilgrims - Mozart's Dilemma
TTITLE9=Capt. Skid Marks - Chick-A-Boom
TTITLE10=Doctor Marigold's Prescription - Land Of Fusan
TTITLE11=Brownhill Stamp Duty - Pigeon
TTITLE12=Autumn - Sun Sunshine
TTITLE13=John Bunyan's Progressive Pilgrims - Spaced Out
TTITLE14=Modern Sounds - Long Gone Lonesome Blues
TTITLE15=The Heads Of The Family - Lodi
TTITLE16=The Mustang - Haight-Ashbury Time
TTITLE17=Doctor Marigold's Prescription - Can't You See I'm Right?
TTITLE18=Icarus - Love Is A Thing
TTITLE19=John Bunyan's Progressive Pilgrims - Apricot Brandy
TTITLE20=Modern Sounds - Kaw-Liga
TTITLE21=Jane and Eve And The Creations - More Than Now
TTITLE22=Doctor Marigold's Prescription - Tie Me Down (Casanova)
TTITLE23=101 Strings - Whiplash
TTITLE24=101 Strings - Instant Nirvana
TTITLE25=101 Strings - All You Need Is Love
EXTD=
EXTT0=
EXTT1=
EXTT2=
EXTT3=
EXTT4=
EXTT5=
EXTT6=
EXTT7=
EXTT8=
EXTT9=
EXTT10=
EXTT11=
EXTT12=
EXTT13=
EXTT14=
EXTT15=
EXTT16=
EXTT17=
EXTT18=
EXTT19=
EXTT20=
EXTT21=
EXTT22=
EXTT23=
EXTT24=
EXTT25=
PLAYORDER=
